<svg width="449" height="95" viewBox="0 0 449 95" fill="none" xmlns="http://www.w3.org/2000/svg">
<path fill-rule="evenodd" clip-rule="evenodd" d="M60.5121 74.1415C61.8947 73.2091 47.6693 80.126 47.6693 80.126C47.54 80.0942 33.6552 74.4752 34.0883 74.1089C43.6327 66.0132 42.0022 53.8189 41.5782 53.8968L43.3417 53.1401C44.05 53.9346 46.4458 55.0008 47.9266 54.8901C48.9838 54.8122 50.6143 54.1856 50.6143 54.1856C52.2013 53.9346 52.8654 54.4939 52.8295 55.1471C52.0766 68.1864 60.5121 74.1415 60.5121 74.1415V74.1415Z" fill="#B18F47"/>
<path fill-rule="evenodd" clip-rule="evenodd" d="M36.5594 43.5455C36.6709 43.6351 37.6525 43.211 39.6382 42.454C41.6236 41.6958 42.4929 41.226 42.4929 41.226C43.0734 38.9961 41.0283 36.2952 39.95 36.2952C39.95 36.2952 38.99 36.765 38.8785 37.1438C38.7678 37.5225 40.308 38.1929 39.8824 40.6682L39.3015 40.9138C38.5675 40.1545 39.5373 38.476 37.5009 37.4801C36.5379 37.0088 36.0023 38.795 36.0023 38.795C38.1377 41.2718 36.1539 43.2159 36.5594 43.5455V43.5455ZM35.3288 44.2685C35.3545 44.044 35.1013 43.7254 35.147 43.228C36.9967 42.1327 35.9577 39.5524 35.1769 39.1064C35.0427 39.1287 34.3522 39.5313 34.1953 39.419C33.8608 38.6382 34.6088 38.5033 35.2218 38.058C35.8016 37.5894 35.4668 37.434 36.1527 36.9948C37.0473 36.7556 37.8097 36.8316 38.2137 36.6603C38.7459 36.5197 39.371 36.1172 39.5706 35.5597C39.5706 35.5597 40.3953 34.2887 39.6836 32.1026C40.4402 31.6789 40.7203 32.0901 40.7203 32.0901C40.7203 32.0901 40.9089 33.3514 40.8208 33.7754C40.7305 34.1991 40.6103 35.4906 40.6103 35.4906C40.6103 35.4906 42.0242 36.965 42.4483 36.965C43.363 36.965 43.5417 34.8288 44.2307 34.5994C44.4983 34.5098 44.6223 34.6927 44.6786 34.822C44.9239 35.404 42.9162 37.8796 43.0508 38.1249C43.471 38.8884 43.3422 40.904 43.6317 40.8469C43.852 40.8023 44.8577 40.6905 44.8997 40.506C45.2538 38.9749 46.3741 37.8792 46.5098 36.8312C46.7044 35.294 45.989 34.1024 45.8393 33.9089C45.7709 33.8189 45.3725 33.2849 44.0765 33.1057C43.7095 33.0551 42.7616 32.013 42.8935 31.1989C42.923 31.0289 43.7859 31.1989 43.7859 31.1989C43.7655 31.4325 44.0682 32.4016 44.4798 32.459C45.9066 32.6593 45.8846 32.727 46.1825 32.9832C46.8152 33.5275 47.2313 36.3591 47.7381 35.8047C49.1195 34.2887 51.021 35.0707 50.9481 34.8454C50.8419 34.5178 51.1318 32.179 50.2674 30.7231C49.1294 28.9388 47.1024 29.3186 47.1024 29.3186C47.1024 30.0088 48.4615 31.262 47.6039 32.2024C47.5276 32.2859 47.311 32.4326 47.1024 31.8055C46.9679 31.4053 46.6315 30.6925 46.3287 30.2261C45.7115 29.2778 44.868 28.5041 44.1139 28.3367C43.3316 28.1636 41.435 26.959 37.9299 28.7539C35.3163 30.0923 36.211 32.9946 35.1081 33.8952C34.461 34.4221 33.6224 34.15 33.1019 34.6889C32.4783 35.3322 32.2084 36.0012 31.8686 36.6112C31.5965 37.1026 29.8133 37.3955 29.1935 38.555C28.5963 39.673 28.4489 41.0495 28.5045 41.5847C28.5464 41.9815 28.379 43.2152 30.7393 42.9639C31.1672 42.9177 32.5766 42.2121 32.8578 41.9929C33.2459 41.6894 33.504 41.2873 33.6662 41.3969C34.0007 41.6267 34.0131 42.104 33.9171 42.2325C33.6692 42.5621 32.5731 43.5648 31.3875 43.7156C30.2525 43.8622 28.6719 43.5697 28.5464 43.9253C28.4731 44.1321 27.484 45.0853 27.1677 46.1613C26.8498 47.2373 27.0335 48.3757 27.0422 48.5851C27.0626 49.1494 27.4099 50.151 28.2331 50.696C28.7316 51.0252 29.2097 51.0811 29.4331 51.142C29.6259 49.5909 32.4065 45.5214 35.3288 44.2685V44.2685ZM42.2264 45.7758C41.9369 45.6273 42.347 45.1858 42.471 45.1975C44.2987 45.3752 44.3743 46.2464 44.8793 46.3786C45.3926 46.5124 45.3128 45.9141 45.5929 45.3975C45.8117 44.9976 46.1965 45.0173 46.1262 44.5169C46.0184 43.7232 44.747 43.0546 44.846 42.4551C44.8903 42.1807 45.5445 42.0231 45.6257 42.1218C46.3741 43.0546 46.7547 43.5897 46.7547 43.5897C46.9728 43.5886 48.0624 42.7533 49.3425 42.2302C50.6378 41.7 52.0502 41.7106 52.0188 41.6267C51.9723 41.5016 52.7845 38.8978 52.2448 39.0392C50.8517 39.4032 48.3478 40.3579 46.1076 41.1138C44.3486 41.7075 42.7703 42.1305 41.9354 42.3856C41.2354 42.5999 34.4293 45.0898 32.9443 46.9599C29.9339 50.7512 30.491 51.5316 30.3138 52.2452C30.3081 52.2671 30.2964 52.2864 30.2794 52.3038C30.7469 53.0669 31.4393 56.0591 35.1493 54.982C37.7409 54.2291 36.7378 49.5493 38.0754 50.7195C38.6446 51.218 37.406 53.3103 38.2421 53.5613C40.2785 54.1735 42.1626 52.8772 42.8315 52.3503C43.0659 50.7156 44.2787 49.4986 44.7338 48.9756C44.9197 48.7613 45.3449 47.3915 42.2264 45.7758V45.7758ZM70.006 42.8206C70.0687 42.7053 71.593 42.8516 71.593 42.7155C71.593 42.0526 72.2949 41.164 72.1792 39.7917C72.0435 38.1975 70.91 37.3463 70.7214 36.9722C70.7059 36.937 67.2031 37.084 67.0549 33.6779C67.0549 33.6779 67.8093 33.2233 67.8033 33.3794C67.7284 35.7363 70.9849 36.0144 71.0083 35.9668C71.4698 35.0446 71.4906 33.2716 70.8836 32.0595C70.3117 30.917 68.4174 29.4679 68.1665 29.1969C68.117 29.1433 68.0879 29.0597 68.0769 28.9648C67.6268 28.526 66.4827 27.5971 64.7819 27.5007C63.351 27.4202 62.4469 28.2301 61.7666 28.4947C61.6113 30.6184 61.0152 32.4828 60.765 32.9266C59.1901 35.7344 63.4553 35.0333 63.6813 34.822C64.8961 33.6859 64.709 32.789 65.0707 30.2941C65.1266 29.8954 65.7438 30.141 65.7438 30.141C65.7442 30.1407 66.1444 31.1237 65.9622 31.6778C65.9388 31.7436 67.2341 31.5882 67.9703 32.092C68.1185 32.1911 67.8327 32.7089 67.9155 32.871C67.931 32.902 66.2083 32.2353 65.7612 32.5913C65.638 32.6903 65.8266 34.8333 64.2883 35.7132C64.1413 35.7967 63.9512 35.8859 64.2675 37.3849C64.3053 37.564 64.3189 37.7061 64.3155 37.8195C64.3484 37.8282 64.379 37.835 64.4126 37.8448C66.3565 38.4088 67.6521 39.913 67.6521 39.913C68.2133 40.6235 69.7739 39.1246 70.0464 40.4834C70.0872 40.6693 68.0263 40.6629 68.0652 40.9702C68.6639 45.9089 66.2692 46.9195 64.5468 46.8454C64.4221 46.8398 64.9365 49.2813 64.472 49.6521C63.1624 50.7013 64.3987 47.2952 62.6385 45.8348C62.1616 45.4402 60.7148 45.2417 59.6062 46.0358C59.1077 46.3934 57.8026 46.9645 57.2104 47.556C57.1884 47.5771 57.5532 48.6717 57.6579 49.1282C57.7713 49.6147 57.6874 50.6359 57.5097 50.8135C56.3872 51.9361 56.9484 47.9309 56.0504 47.8561C55.4986 47.8111 55.0387 48.2522 54.6055 48.2522C54.1985 48.2522 53.2804 48.1932 52.794 48.4173C51.5044 49.0137 50.3868 49.9692 49.6865 49.9889C49.6638 49.9889 49.0307 49.2983 49.4219 49.1282C49.5557 49.0708 51.3706 48.6796 52.0048 47.7068C52.334 47.2094 53.6157 46.5861 53.6157 44.0384C53.6157 43.7008 54.3655 43.476 54.5148 43.7749C55.0322 44.8158 53.4955 47.2249 53.8024 47.2574C55.2273 47.4071 57.5815 46.2071 57.8106 46.0975C59.5658 45.2626 59.3352 44.6151 59.1542 42.9903C59.1512 42.9298 59.455 42.8399 59.7933 42.8777C60.1176 42.9143 59.8685 44.3747 60.2408 44.6748C60.5322 44.9073 61.9012 44.4174 62.846 44.7818C63.6613 45.0959 64.0196 46.2604 65.5941 45.9856C66.3035 45.8612 69.3793 42.1724 65.407 39.0603C65.0926 38.8151 62.0043 37.9371 60.8799 39.6205C60.8799 39.6205 65.2578 40.6326 65.1451 43.8887C65.1376 44.1722 64.5124 44.3226 64.4346 44.0387C64.0978 42.8399 63.5146 42.0768 62.8615 41.4554C62.1506 40.7819 60.4982 40.458 60.0537 40.4448C58.9437 40.413 58.4074 40.2955 57.402 40.6878C57.2572 40.7218 56.0504 41.1568 56.0504 41.1568C55.6014 41.1568 55.4363 41.5015 55.3769 41.568C55.2446 41.7105 55.109 41.81 54.974 41.8746C54.9869 41.8821 54.9986 41.8901 55.0028 41.8984C55.0855 42.0662 55.8728 42.4283 56.0803 42.5855C56.4356 42.8531 56.4496 43.6498 56.1253 43.6782C55.8558 43.702 54.5836 41.5601 49.8565 42.9877C48.4525 43.4102 46.5797 44.7859 46.3042 45.9587C45.9281 47.5382 45.7584 48.6894 45.7958 48.6981C46.0997 48.7779 46.8995 48.8259 46.7948 48.9756C46.7218 49.0799 46.7203 50.0512 46.5158 49.9219C44.4333 48.6108 44.168 51.8937 44.0096 52.3193C43.996 52.356 43.9813 52.3843 43.9673 52.4168C45.1238 53.0253 45.5154 54.3391 47.1024 54.3134C48.4396 54.293 49.0462 54.2091 50.7391 53.5813C50.9949 53.4872 51.6167 50.5936 52.3495 51.1582C53.0586 51.707 51.4689 52.8348 51.7633 53.3734C52.0128 53.833 55.1868 54.1512 55.8165 54.1047C56.9485 54.0212 56.5788 54.1747 57.6983 53.8746C59.4116 53.4154 61.064 51.5759 61.1453 51.3465C61.2715 50.9912 59.463 47.7181 59.8715 47.5851C60.0337 47.5337 60.2646 47.5507 60.4358 47.5427C61.3758 47.5008 60.8523 49.194 62.1272 50.9693C62.603 51.6333 64.4281 51.6617 65.178 51.5551C65.9093 51.4511 66.4483 51.1681 67.1222 50.9693C67.9779 50.7194 68.6265 50.3645 68.8774 49.7375C68.9322 49.5992 68.0202 48.084 68.1041 47.7517C68.126 47.6694 68.4068 47.4282 68.6684 47.4384C69.1703 47.4596 69.1567 47.8719 69.1518 48.1962C69.1488 48.3372 69.6737 49.1729 69.755 49.1305C69.8797 49.0629 70.9463 48.9227 71.9486 45.8503C72.1199 45.3272 71.6569 44.199 71.3436 43.7186C71.1379 43.4026 69.2746 44.157 70.006 42.8206V42.8206ZM26.6453 50.5917C26.6453 50.5917 25.8713 51.3646 25.2235 51.1133C25.0598 51.049 25.0765 50.8582 24.9937 50.696C24.9789 50.6639 26.2799 49.6169 26.2697 49.5882C25.6835 48.2295 26.544 46.2316 26.0811 46.0358C24.8433 45.5135 23.2593 46.1613 22.9664 46.4743C22.5328 46.9395 22.1447 47.0594 22.0479 47.0393C21.7558 46.9762 21.5445 46.5676 21.6715 46.4542C24.0957 44.2806 26.685 45.2278 26.75 45.0959C27.125 44.3226 27.7856 43.7042 28.1708 43.3191C28.2543 43.2356 27.919 42.7341 27.7943 42.5043C27.7614 42.4461 23.7619 43.9042 22.3605 42.8799C22.0846 42.6777 22.2218 42.3179 22.215 42.2741C22.1946 42.141 24.2846 43.1823 27.6681 41.5847C27.8404 41.5038 27.7951 39.8416 27.6798 39.6072C27.2735 38.7924 25.6415 38.1786 25.7258 37.7613C25.7515 37.6226 25.8535 37.0546 25.9968 37.03C26.476 36.9461 28.1296 38.8079 28.2331 38.6593C28.2974 38.5671 28.3159 38.256 28.4164 38.0501C28.0177 37.7273 26.069 34.8541 25.6634 35.2986C24.9385 36.0923 24.7386 35.7816 24.0957 37.2836C24.0326 37.4302 23.6569 37.931 23.7619 38.4953C23.8073 38.7444 24.8675 39.1824 25.4333 40.2086C25.6819 40.6629 24.9725 41.0442 24.8051 40.7517C24.4419 40.1175 23.6935 39.5853 23.4067 39.54C22.8409 39.4519 21.5664 39.4984 21.1492 39.7917C19.2802 41.0994 19.047 41.802 18.7885 42.7783C18.4547 44.0319 19.5599 44.7425 19.3535 45.5577C19.1056 46.5192 18.5575 46.7279 18.663 47.8141C18.7057 48.2616 18.9854 49.3577 19.8365 49.5928C22.4036 50.3007 23.5968 47.7162 24.1369 48.4831C24.4139 48.8773 23.8946 49.1683 23.4259 49.4662C22.9735 49.7549 22.9871 49.9881 22.3397 50.0512C21.882 50.095 21.433 50.3248 21.3582 50.5097C21.2444 50.7871 21.385 51.3616 21.4409 51.4712C22.2562 53.0382 22.7989 51.9531 23.7808 52.3911C24.1236 52.5453 23.6145 53.6663 26.2477 53.6444C27.1896 53.6369 27.9001 53.1455 28.5022 52.7112C28.5238 52.582 28.5427 52.3352 28.4421 52.0748C28.2947 51.6979 26.6453 50.5917 26.6453 50.5917V50.5917ZM29.1485 37.3395C29.164 37.3286 29.1738 37.3218 29.1738 37.3218C29.5 37.0213 30.5326 36.4029 30.485 36.2797C30.1641 35.3995 29.5303 34.8972 29.446 34.7097C29.3262 34.4523 29.6727 33.9875 29.8625 33.9364C30.1773 33.8533 31.3875 35.943 31.6596 35.5046C31.8577 35.1833 31.7439 34.6636 32.7255 33.8952C33.3676 33.3914 34.4697 33.769 34.6481 32.9129C34.8427 31.9915 35.2328 31.0954 35.2124 30.886C34.9524 28.2936 34.2101 28.5457 34.1881 28.4206C34.0668 27.6912 34.4875 27.6726 34.5438 27.396C34.619 27.0176 35.7132 28.9845 35.7763 29.1519C35.9188 29.531 36.4358 28.986 36.6951 28.7539C38.6669 26.9953 39.9882 27.0248 41.0431 26.9991C41.113 26.9976 41.1841 26.9878 41.2555 26.9731C41.2997 26.8801 41.5197 26.744 41.6761 26.4836C41.8606 26.1752 41.9252 25.6585 42.0866 25.6226C42.2272 25.5909 43.733 24.762 43.733 24.762C43.733 24.0379 44.6261 22.7029 45.1193 22.7774C46.3556 22.9645 44.3713 24.1629 44.8952 24.313C44.9613 24.3315 45.5411 24.4793 46.427 24.4396C46.3344 23.7374 47.5352 22.4856 47.353 22.3631C45.8582 21.3669 44.2749 21.4976 43.4658 21.7577C42.3633 22.1126 41.9626 22.8435 41.669 23.1156C41.3742 23.3897 41.8576 25.519 41.1463 25.519C40.3314 25.519 40.7717 23.3451 40.4561 23.2616C39.3499 22.9698 38.2632 23.6172 37.7409 24.2439C37.3062 24.7635 37.5107 25.3936 36.5288 26.1038C36.2321 26.3184 34.8579 25.8951 33.9171 26.4806C31.6868 27.8673 32.2046 28.5646 32.0984 28.7993C31.8123 29.4312 33.6435 30.2741 33.2897 30.7008C33.1476 30.8713 33.0501 31.1071 32.8506 31.1396C32.7255 31.1607 31.8637 30.3304 31.7432 30.4925C31.4578 30.8746 30.1592 31.5565 29.4029 31.7043C29.1224 31.7598 28.4523 32.1283 28.2792 32.2406C27.4458 32.7878 26.6726 33.7206 26.75 34.4629C26.8479 35.4313 28.9081 37.109 29.1485 37.3395V37.3395ZM48.3024 25.7723C49.0228 25.722 49.3146 25.1362 49.6509 25.0239C50.1952 24.9831 51.029 25.6113 51.484 25.5856C51.9814 25.5572 53.1682 24.2011 53.4297 24.0133C54.4385 23.4467 52.7192 22.6281 53.8791 22.6655C54.9703 22.7638 55.3021 24.0122 55.1902 24.2748C55.1309 24.4113 54.1796 24.4249 54.0658 24.6498C53.7355 25.3115 51.7852 26.8203 51.3347 26.7833C50.8857 26.7455 50.2886 25.9223 49.9114 25.8471C49.5372 25.7723 48.4147 26.764 48.0409 26.8105C47.6648 26.8585 47.0661 25.2488 45.3068 25.2488C44.0213 25.2488 42.6671 25.8615 42.5458 26.8049C42.5526 26.8139 42.5605 26.8211 42.567 26.8317C42.8614 27.3121 43.6721 27.1571 44.0096 27.1669C44.7822 27.187 45.3672 27.9822 46.1825 28.4622C46.2369 28.4935 47.9596 27.7516 50.6771 29.5488C51.0838 29.819 51.659 28.5672 52.7033 27.8136C53.5389 27.125 53.8742 27.2384 54.443 26.8842C55.318 26.34 56.2375 25.9344 57.0921 25.9367C58.4606 26.0179 59.6425 25.7666 61.3962 27.6469C61.8342 27.2708 63.5071 26.8105 64.3628 26.6212C64.489 25.5992 63.0686 24.5549 63.2777 23.9694C63.6129 23.8232 63.6832 23.8549 63.9043 23.8855C64.4346 23.9608 65.2608 25.787 65.5975 26.6654C65.5975 26.6654 66.1868 26.8801 65.7861 26.8317C66.6346 26.8733 68.9163 28.2395 68.9549 28.2626C68.7636 24.8285 66.3591 24.5609 66.2457 24.1819C65.7876 22.661 65.2608 21.6322 64.5109 21.5902C63.563 21.5377 62.6933 21.5902 61.5425 21.5902C61.2651 21.5902 62.442 23.889 61.4178 23.9309C61.0719 23.9445 60.1429 21.5282 60.1429 21.5282C59.7653 21.5071 57.8854 21.2769 57.8854 21.4859C57.8854 21.8835 58.6912 24.0545 58.3454 24.3281C58.0865 24.5322 57.7996 24.2 57.6356 24.2234C57.2882 24.2726 58.0116 19.6464 52.2853 20.4197C51.1072 20.5792 50.0924 21.0263 49.0681 22.5722C48.9185 22.7963 48.3153 22.5521 48.2525 22.6353C47.7948 23.2438 47.3768 23.8757 47.3534 24.8062C47.692 25.2194 48.1078 25.7965 48.3024 25.7723V25.7723ZM50.0281 35.5877C47.562 35.5877 45.4103 40.3034 46.3492 40.1432C48.0639 39.8503 51.5033 38.5365 52.3684 37.8868C52.7037 37.6351 51.8616 35.5877 50.0281 35.5877ZM68.9602 28.3189C68.9594 28.3012 68.9564 28.2864 68.9553 28.2687L68.8944 28.3537C68.9352 28.3514 68.9617 28.3416 68.9602 28.3189ZM63.2202 35.7136C62.9303 35.8258 62.3158 36.0602 61.1668 35.8258C60.6104 35.7132 59.7952 34.9195 59.7185 34.9006C59.4225 34.8288 59.2729 35.3167 58.6039 35.9014C58.1318 36.3153 56.7035 37.3429 56.8063 37.4684C57.4043 38.1827 57.6556 39.2259 57.7516 39.7108C57.8446 39.7588 58.5895 40.0457 61.1403 38.4983C61.6222 38.2069 62.2882 37.7874 63.275 37.7224C63.2028 37.039 63.5388 35.5907 63.2202 35.7136V35.7136ZM60.6728 28.3412C60.2295 27.6775 59.1194 26.8068 58.4716 26.7905C56.459 26.7387 54.7518 26.8317 51.2629 30.3217C51.2463 30.3383 51.2263 30.3576 51.2081 30.3757C51.2115 30.3784 51.2157 30.381 51.2194 30.3844C51.2194 30.3844 51.5139 31.8339 52.0347 32.1468C54.1331 33.4145 54.7079 34.2263 54.652 34.5789C54.6286 34.7127 53.96 34.8016 53.96 34.8016C53.4547 33.8741 51.885 32.7924 51.8756 32.9341C51.8102 34.0045 51.7493 35.1274 52.0645 35.3149C53.8182 36.3606 53.1663 37.6105 53.5389 37.6634C54.7204 37.8343 59.3507 34.9622 58.4247 34.3322C57.6998 33.8412 54.5182 31.6997 55.2318 28.9788C55.3769 28.4327 55.9817 28.5604 55.9896 28.9153C56.0584 32.213 59.0589 33.4568 59.226 33.4848C59.8889 33.5944 60.7484 29.7854 60.6728 28.3412V28.3412ZM56.0504 40.4085C56.2084 40.3628 56.4042 40.2671 56.6094 40.1613C56.6245 40.1413 56.6344 40.1243 56.6536 40.1012C56.6536 40.1012 57.2179 39.4406 55.8804 37.8116C55.8479 37.7738 55.4926 37.8721 54.5182 38.3026C54.1176 38.4802 53.3798 38.6831 53.3847 38.7017C53.4067 38.8347 52.9452 40.2607 52.9561 41.4921C52.958 41.5892 53.4773 41.6501 53.9925 41.7083C55.2957 41.3171 53.4059 41.2525 56.0504 40.4085V40.4085Z" fill="#008270"/>
<path fill-rule="evenodd" clip-rule="evenodd" d="M15.1991 80.7107L16.9615 78.8478L16.6213 78.5269C16.514 78.4237 16.3718 78.3148 16.178 78.2736C15.8374 78.1977 15.5653 78.3768 15.2263 78.5715L14.6843 78.8844C14.456 79.0163 14.1824 79.1565 13.9042 79.1766C13.6672 79.197 13.5342 79.1335 13.417 79.0243L12.5674 78.2196C12.7522 78.2415 12.8592 78.2116 12.9979 78.1757C13.1872 78.1243 13.5028 78.023 14.0304 77.7097L14.5006 77.4323C14.7584 77.2796 15.0921 77.105 15.4515 77.1224C15.6564 77.1364 15.8106 77.2048 15.9263 77.2876L15.9519 77.2611C15.8355 77.1115 15.7509 76.9414 15.7127 76.7769C15.594 76.2765 15.8106 75.7735 16.074 75.2376C16.2895 74.8071 16.4588 74.4907 16.6137 74.0837C16.7158 73.8093 16.7649 73.6082 16.7649 73.3512L17.7703 74.3025C17.8451 74.3879 17.9434 74.5701 17.8296 74.9628C17.768 75.1635 17.5874 75.5335 17.4532 75.7954L17.1765 76.3325C16.9894 76.6957 16.9471 76.8495 16.9373 76.9413C16.8919 77.2611 17.09 77.4743 17.3005 77.6738L17.7079 78.0597L19.6139 76.0482L20.7002 77.0771L16.2872 81.7413L15.1991 80.7107V80.7107Z" fill="#008270"/>
<path fill-rule="evenodd" clip-rule="evenodd" d="M6.90454 70.8351L12.1675 67.1572L13.0251 68.3841L8.72779 71.3884L9.59291 72.6231L9.97314 72.368C10.1035 72.2762 11.3905 71.4228 12.3928 70.9738C12.8358 70.778 13.5278 70.5248 14.1265 70.6306C14.6216 70.7187 14.9338 71.0014 15.1428 71.3015C15.2505 71.4553 15.3144 71.5925 15.3571 71.7229L14.3978 72.3938C14.3733 72.3424 14.3555 72.2985 14.3219 72.252C14.1684 72.0287 13.8468 71.831 13.2386 72.0056C12.7787 72.1318 12.0882 72.5215 11.8123 72.6814C11.4147 72.9123 10.9827 73.192 9.70139 74.0534L9.32571 74.3024L6.90454 70.8351V70.8351Z" fill="#008270"/>
<path fill-rule="evenodd" clip-rule="evenodd" d="M4.14533 65.5533L7.21165 64.2459C7.61682 64.0728 7.88026 64.001 7.96228 63.9765C7.71283 64.012 7.43693 63.9867 7.32921 63.9708L3.72806 63.402L3.30475 63.5811L2.71704 62.2046L8.62634 59.6848L9.21178 61.0617L6.13827 62.3747C5.72366 62.5489 5.46476 62.6302 5.3525 62.6585C5.54828 62.6351 5.84498 62.6404 5.98785 62.6616L9.57952 63.2368L10.0542 63.035L10.642 64.4122L4.73342 66.9309L4.14533 65.5533V65.5533Z" fill="#008270"/>
<path fill-rule="evenodd" clip-rule="evenodd" d="M6.70575 51.6362L6.99601 53.1084L4.32389 53.6333L4.72754 55.6992L7.40345 55.1739L7.69031 56.6448L1.38983 57.883L1.1007 56.4135L3.571 55.926L3.1647 53.8593L0.693647 54.3458L0.405273 52.8755L6.70575 51.6362Z" fill="#008270"/>
<path fill-rule="evenodd" clip-rule="evenodd" d="M0.0204109 46.896L3.35169 46.9409C3.79201 46.9459 4.06261 46.9863 4.14652 46.9988C3.90576 46.9296 3.66199 46.7947 3.56977 46.7372L0.505715 44.759L0.0476316 44.753L0.0684117 43.2544L6.48907 43.3383L6.46868 44.8357L3.12719 44.7934C2.67818 44.787 2.4068 44.756 2.29455 44.7363C2.48164 44.7949 2.74998 44.9189 2.87244 44.9968L5.92631 46.9731L6.44146 46.9814L6.42143 48.4781L0 48.3938L0.0204109 46.896V46.896Z" fill="#008270"/>
<path fill-rule="evenodd" clip-rule="evenodd" d="M0.874553 37.51L2.61125 37.8902C2.8316 37.937 3.09616 37.9964 3.33616 37.8656C3.61735 37.7174 3.67519 37.4041 3.75305 37.0477C3.81163 36.782 3.86302 36.505 3.88494 36.1459L1.29597 35.5813L1.61496 34.1167L7.88897 35.4871L7.57113 36.951L4.99009 36.3878C4.94473 36.8183 4.88237 37.2352 4.7962 37.6298C4.67034 38.2043 4.5271 38.7685 4.07506 39.1295C3.7281 39.4084 3.24659 39.5048 2.39544 39.3185L0.566895 38.9178L0.874553 37.51Z" fill="#008270"/>
<path fill-rule="evenodd" clip-rule="evenodd" d="M4.7838 25.8002L5.86549 26.2669L4.66663 29.0438L5.93883 29.5937L6.89768 27.3762L7.89434 27.8067L6.93662 30.0242L8.39552 30.655L9.60912 27.8457L10.692 28.312L8.88535 32.4971L2.98853 29.9516L4.7838 25.8002Z" fill="#008270"/>
<path fill-rule="evenodd" clip-rule="evenodd" d="M10.7901 20.5129C10.5702 20.3852 10.3037 20.282 10.035 20.2574C9.58977 20.2136 9.29269 20.35 9.044 20.7144C8.76356 21.1222 8.773 21.5255 9.05911 22.0047C9.27228 22.3547 9.59582 22.6434 10.0989 22.9866C10.631 23.3517 11.0426 23.5641 11.43 23.6258C12.0998 23.7414 12.463 23.4459 12.6414 23.1828C12.8152 22.9281 12.915 22.5977 12.7646 22.1884C12.6568 21.8996 12.4153 21.6219 12.2218 21.4567L13.1059 20.3935C13.6584 20.8614 13.9253 21.4506 14.0088 21.9276C14.0942 22.4163 14.0655 23.0887 13.5681 23.8151C12.7971 24.9448 11.7286 25.0986 11.094 25.0495C10.4572 25.0015 9.73943 24.692 9.20463 24.328C8.30208 23.7097 7.7688 22.8804 7.62555 22.1253C7.44791 21.177 7.84135 20.4819 8.11499 20.0798C8.39619 19.6705 8.91323 19.1156 9.71071 18.958C9.86719 18.9282 10.6367 18.797 11.4901 19.2903L10.7901 20.5129V20.5129Z" fill="#008270"/>
<path fill-rule="evenodd" clip-rule="evenodd" d="M13.3562 13.878L15.1492 15.7153L15.4825 15.3879C15.5902 15.2832 15.704 15.1457 15.7539 14.9537C15.8442 14.6177 15.6768 14.338 15.495 13.9918L15.2036 13.4373C15.0811 13.2037 14.9526 12.9248 14.9409 12.6463C14.9326 12.4074 14.9999 12.2774 15.114 12.1647L15.9519 11.3491C15.9228 11.5336 15.9485 11.6405 15.9792 11.78C16.023 11.972 16.1118 12.2906 16.4025 12.83L16.6617 13.3111C16.8039 13.5772 16.9652 13.9169 16.9339 14.2745C16.9104 14.479 16.8364 14.6305 16.7491 14.742L16.7751 14.7689C16.9293 14.6589 17.1005 14.5814 17.2699 14.55C17.7718 14.4506 18.2669 14.688 18.7915 14.9737C19.2122 15.2039 19.5217 15.3868 19.9227 15.5576C20.1929 15.6741 20.3902 15.73 20.648 15.7387L19.6559 16.7062C19.5693 16.7777 19.383 16.8669 18.9941 16.7361C18.7968 16.6677 18.4343 16.4719 18.1781 16.3291L17.6535 16.0308C17.2974 15.829 17.1451 15.7799 17.0533 15.7652C16.7369 15.7088 16.5162 15.8982 16.3072 16.0989L15.9051 16.4923L17.8383 18.4766L16.7664 19.5216L12.2847 14.9231L13.3562 13.878V13.878Z" fill="#008270"/>
<path fill-rule="evenodd" clip-rule="evenodd" d="M20.5108 7.93845L22.3069 10.7451C22.5454 11.1155 22.6599 11.3642 22.6981 11.4402C22.6225 11.1994 22.6002 10.9243 22.596 10.8143L22.5631 7.16778L22.3171 6.78152L23.5783 5.97461L27.0407 11.3835L25.7787 12.1908L23.9774 9.37504C23.7363 8.99784 23.6123 8.75369 23.5681 8.64899C23.6203 8.83684 23.6656 9.13049 23.6679 9.27335L23.6959 12.9131L23.974 13.3466L22.7121 14.1539L19.25 8.745L20.5108 7.93845V7.93845Z" fill="#008270"/>
<path fill-rule="evenodd" clip-rule="evenodd" d="M31.0035 0.626221C31.1483 1.09148 30.9918 1.47135 30.8723 1.65655C30.5987 2.09951 30.022 2.34857 29.7782 2.44117C29.5325 2.53263 28.9353 2.72879 28.4383 2.57648C28.2255 2.51638 27.8559 2.33535 27.6579 1.88974L28.7362 1.48267C28.7849 1.61457 28.8809 1.73743 28.9992 1.78429C29.1319 1.84325 29.3152 1.82398 29.5159 1.74801C29.7173 1.67242 29.8655 1.56582 29.9252 1.43391C29.9838 1.32052 29.9762 1.1652 29.9252 1.0333L31.0035 0.626221ZM29.0071 3.42156L30.1849 6.54007C30.3394 6.95129 30.4014 7.21772 30.4226 7.30011C30.3969 7.04991 30.4343 6.77515 30.4528 6.66819L31.1747 3.09388L31.0126 2.66414L32.4144 2.13578L34.684 8.14298L33.2818 8.67248L32.1219 5.60652C31.9529 5.15185 31.8879 4.9054 31.849 4.74893C31.8649 4.94396 31.8467 5.24218 31.8195 5.38278L31.0938 8.94801L31.276 9.42912L29.8753 9.95977L27.6057 3.9511L29.0071 3.42156V3.42156Z" fill="#008270"/>
<path fill-rule="evenodd" clip-rule="evenodd" d="M42.8885 0.185581L43.0594 3.51382C43.0805 3.953 43.0578 4.22588 43.0522 4.31054C43.1047 4.06412 43.2245 3.81466 43.2752 3.71715L45.0523 0.534781L45.0289 0.0755906L46.5252 0L46.854 6.41309L45.3581 6.48868L45.1869 3.15173C45.1646 2.7031 45.1789 2.43098 45.1921 2.31721C45.1438 2.50619 45.036 2.78511 44.9691 2.90983L43.1897 6.08504L43.2162 6.59867L41.721 6.67614L41.3926 0.262279L42.8885 0.185581V0.185581Z" fill="#008270"/>
<path fill-rule="evenodd" clip-rule="evenodd" d="M55.0525 7.35828L53.5732 7.12848L53.9912 4.43557L51.9083 4.1132L51.4903 6.80611L50.0095 6.57554L50.9948 0.229736L52.4775 0.459129L52.089 2.94756L54.17 3.26997L54.5551 0.781163L56.0364 1.01096L55.0525 7.35828Z" fill="#008270"/>
<path fill-rule="evenodd" clip-rule="evenodd" d="M63.0422 5.67696C63.114 5.43432 63.1514 5.1478 63.1095 4.88134C63.0437 4.43914 62.8411 4.18253 62.4299 4.02833C61.962 3.85409 61.5769 3.95878 61.1808 4.35147C60.8909 4.6425 60.6883 5.02725 60.4748 5.5972C60.2473 6.20155 60.1392 6.65094 60.1736 7.0425C60.2223 7.72093 60.595 8.00098 60.8909 8.1121C61.1827 8.21982 61.527 8.2391 61.8872 7.99381C62.1427 7.81919 62.3551 7.51871 62.4704 7.29194L63.7127 7.89552C63.3884 8.54522 62.8831 8.94474 62.439 9.13863C61.984 9.33932 61.3259 9.47236 60.5009 9.16395C59.22 8.68584 58.8144 7.68425 58.7116 7.05572C58.6039 6.42718 58.7317 5.65541 58.9577 5.05068C59.3428 4.0253 60.0194 3.30945 60.7208 2.9897C61.5969 2.58907 62.3657 2.80489 62.8223 2.97685C63.289 3.15147 63.9482 3.51693 64.2925 4.2547C64.3594 4.40059 64.6712 5.11568 64.3987 6.06396L63.0422 5.67696V5.67696Z" fill="#008270"/>
<path fill-rule="evenodd" clip-rule="evenodd" d="M72.0091 7.73486L71.4059 8.75005L70.1058 7.97222L67.42 12.4771L66.1323 11.7094L68.8165 7.2065L67.5149 6.43092L68.1166 5.4165L72.0091 7.73486Z" fill="#008270"/>
<path fill-rule="evenodd" clip-rule="evenodd" d="M76.1281 10.8703L73.9299 13.375C73.6385 13.7053 73.4299 13.8845 73.3672 13.9411C73.5762 13.8013 73.8366 13.7046 73.9405 13.6717L77.4343 12.6293L77.7367 12.285L78.8626 13.2741L74.6265 18.0983L73.5013 17.1095L75.7056 14.5995C76.0019 14.2601 76.2029 14.0776 76.2903 14.0039C76.1266 14.1078 75.8533 14.231 75.7199 14.2734L72.2276 15.3078L71.8894 15.6949L70.7668 14.7061L75.0041 9.88196L76.1281 10.8703V10.8703Z" fill="#008270"/>
<path fill-rule="evenodd" clip-rule="evenodd" d="M84.1985 19.5508L83.2714 20.2803L82.334 19.0878L78.214 22.3292L77.291 21.153L81.4099 17.9105L80.4711 16.7196L81.399 15.9897L84.1985 19.5508Z" fill="#008270"/>
<path fill-rule="evenodd" clip-rule="evenodd" d="M86.5981 23.3704L84.5682 26.0742L84.5746 26.0909L87.8666 25.7174L88.4936 26.8785L83.494 27.3563C82.613 27.439 82.1905 27.4232 81.8681 27.3215C81.2917 27.1423 80.989 26.6994 80.8083 26.3622C80.696 26.1559 80.6004 25.9208 80.5354 25.6581L81.5642 25.1025C81.6077 25.2805 81.6719 25.4805 81.7619 25.6441C81.8666 25.8426 82.0102 26.0092 82.1814 26.0875C82.3496 26.1649 82.6039 26.1786 82.7925 26.1513L85.8135 21.9209L86.5981 23.3704V23.3704Z" fill="#008270"/>
<path fill-rule="evenodd" clip-rule="evenodd" d="M91.0454 33.8645L89.9278 34.2402L89.4463 32.8017L84.4762 34.4636L84.0007 33.0432L88.9704 31.3799L88.4916 29.9418L89.6096 29.5684L91.0454 33.8645Z" fill="#008270"/>
<path fill-rule="evenodd" clip-rule="evenodd" d="M88.6008 45.654V45.6726L92.7228 46.9334L92.7587 48.9724L86.3357 49.0832L86.3123 47.6409L91.3122 47.5559V47.5381L86.2877 46.0683L86.2719 45.0958L91.2385 43.4199L91.242 43.4007L86.2424 43.485L86.2205 42.3057L92.6419 42.1965L92.6778 44.236L88.6008 45.654Z" fill="#008270"/>
<path fill-rule="evenodd" clip-rule="evenodd" d="M87.1714 54.1701C86.8501 54.2827 86.5107 54.528 86.417 54.9759C86.3202 55.4249 86.5311 55.7847 86.7802 56.0187C86.9628 56.1929 87.3679 56.4896 88.303 56.6876C89.2343 56.886 89.7173 56.7704 89.9388 56.6914C90.4127 56.516 90.6134 56.2216 90.6822 55.8834C90.7551 55.5451 90.6962 55.1955 90.333 54.8402C90.1633 54.6818 89.7687 54.3772 88.8351 54.1791C87.8997 53.9807 87.4087 54.0858 87.1714 54.1701V54.1701ZM91.5288 54.1584C91.9389 54.8776 91.8901 55.5938 91.7828 56.1169C91.6724 56.6377 91.4241 57.3124 90.7525 57.8037C90.13 58.2542 89.1575 58.5162 87.9481 58.2588C86.8875 58.0328 86.0538 57.4919 85.6237 56.778C85.3599 56.3494 85.1248 55.657 85.3179 54.7419C85.5126 53.8261 86.01 53.2906 86.4246 53.0064C87.1109 52.529 88.0883 52.3741 89.1515 52.6001C90.3579 52.8575 91.1437 53.4935 91.5288 54.1584V54.1584Z" fill="#008270"/>
<path fill-rule="evenodd" clip-rule="evenodd" d="M88.2271 62.1335C88.8723 62.5523 89.0782 63.2451 89.1187 63.7341C89.1606 64.2856 89.028 64.7784 88.8258 65.2319C88.6357 65.6692 88.3204 66.2369 87.789 66.5869C87.1669 66.997 86.6136 66.8847 86.272 66.7347C85.6283 66.4508 85.293 65.7721 85.4503 65.0645L85.4348 65.0558C85.2492 65.3627 84.9672 65.6061 84.6929 65.7214C84.3576 65.851 83.9354 65.8371 83.5484 65.6677C82.9917 65.4221 82.6323 64.9655 82.5011 64.4477C82.322 63.7439 82.5661 63.0455 82.8125 62.4876C83.042 61.9668 83.3787 61.3674 83.9899 61.0238C84.1426 60.9365 84.7567 60.6345 85.5829 60.8235L85.2961 62.121C85.1419 62.1033 84.7851 62.0798 84.5462 62.1781C84.2684 62.2919 83.9974 62.5817 83.8496 62.9234C83.6796 63.3108 83.6905 63.5818 83.7449 63.7594C83.8217 63.9855 84.0008 64.1994 84.2514 64.3097C84.5746 64.4518 84.8191 64.3449 84.9313 64.2716C85.1967 64.1121 85.307 63.8849 85.4083 63.6544L85.7621 62.8576L86.7554 63.2957L86.4046 64.0837C86.3124 64.2976 86.236 64.6117 86.2969 64.8438C86.3483 65.0294 86.5014 65.218 86.7489 65.3272C87.0294 65.4519 87.2448 65.3631 87.3775 65.2886C87.5816 65.176 87.7033 64.992 87.814 64.7448C88.0011 64.3249 87.9886 63.953 87.8858 63.6808C87.789 63.4344 87.5891 63.2349 87.4848 63.1479L88.2271 62.1335V62.1335Z" fill="#008270"/>
<path fill-rule="evenodd" clip-rule="evenodd" d="M83.3303 74.4647L82.3559 73.7988L83.8496 71.6112L79.5205 68.6525L80.3652 67.4163L85.6687 71.0401L83.3303 74.4647Z" fill="#008270"/>
<path fill-rule="evenodd" clip-rule="evenodd" d="M79.0352 77.1565L77.8212 75.0354L76.8544 76.0532L79.0352 77.1565ZM73.3889 75.9247L74.4631 74.7916L75.8736 75.5105L77.2282 74.0837L76.4398 72.7137L77.3 71.8047L80.5663 77.692L79.4501 78.8682L73.3889 75.9247V75.9247Z" fill="#008270"/>
<path fill-rule="evenodd" clip-rule="evenodd" d="M19.2698 93.8135C19.3507 93.9118 19.5427 94.0944 19.8757 94.0944C20.2105 94.0944 20.4018 93.9118 20.4834 93.8135C20.5461 93.7444 20.7726 93.4413 20.7726 92.7194C20.7726 91.9979 20.5461 91.6936 20.4834 91.6248C20.4018 91.5269 20.2105 91.3444 19.8757 91.3444C19.5427 91.3444 19.3507 91.5269 19.2698 91.6248C19.2074 91.6936 18.9792 91.9979 18.9792 92.7194C18.9792 93.4413 19.2074 93.7444 19.2698 93.8135ZM18.6216 91.1773C18.8873 90.9267 19.283 90.7068 19.8757 90.7068C20.4694 90.7068 20.864 90.9267 21.129 91.1773C21.5247 91.55 21.7299 92.1268 21.7299 92.7194C21.7299 93.312 21.5247 93.8895 21.129 94.2618C20.864 94.512 20.4694 94.732 19.8757 94.732C19.283 94.732 18.8873 94.512 18.6216 94.2618C18.2278 93.8895 18.0229 93.312 18.0229 92.7194C18.0229 92.1268 18.2278 91.55 18.6216 91.1773Z" fill="#906F3E"/>
<path fill-rule="evenodd" clip-rule="evenodd" d="M24.8352 92.2035C24.8197 92.005 24.7434 91.7779 24.6466 91.6328C24.5563 91.4956 24.373 91.3444 24.0706 91.3444C23.7739 91.3444 23.5759 91.4955 23.4527 91.7015C23.2648 92.0122 23.2478 92.4994 23.2478 92.7194C23.2478 93.0762 23.3038 93.501 23.4527 93.7444C23.5525 93.8967 23.7505 94.0944 24.0706 94.0944C24.2967 94.0944 24.4887 94.0029 24.6319 93.8056C24.7434 93.6461 24.8197 93.4182 24.8352 93.2198L25.6407 93.3196C25.5961 93.6767 25.4369 94.0709 25.155 94.3294C24.9195 94.5434 24.5563 94.732 24.0381 94.732C23.461 94.732 23.0891 94.5044 22.8688 94.2992C22.5709 94.0184 22.292 93.5165 22.292 92.7273C22.292 91.9896 22.5422 91.55 22.7387 91.3141C23.0218 90.9793 23.5003 90.7068 24.0612 90.7068C24.5408 90.7068 24.9343 90.8734 25.1852 91.1316C25.4369 91.3818 25.5877 91.762 25.6407 92.1033L24.8352 92.2035Z" fill="#906F3E"/>
<path fill-rule="evenodd" clip-rule="evenodd" d="M27.2462 90.7827V92.3093H28.7179V90.7827H29.5993V94.6571H28.7179V92.9624H27.2462V94.6571H26.3625V90.7827H27.2462Z" fill="#906F3E"/>
<path fill-rule="evenodd" clip-rule="evenodd" d="M31.6587 93.8135C31.7438 93.9118 31.9309 94.0944 32.2654 94.0944C32.601 94.0944 32.7903 93.9118 32.8746 93.8135C32.9347 93.7444 33.1623 93.4413 33.1623 92.7194C33.1623 91.9979 32.9347 91.6936 32.8746 91.6248C32.7903 91.5269 32.601 91.3444 32.2654 91.3444C31.9309 91.3444 31.7438 91.5269 31.6587 91.6248C31.5956 91.6936 31.3696 91.9979 31.3696 92.7194C31.3696 93.4413 31.5956 93.7444 31.6587 93.8135ZM31.0124 91.1773C31.2778 90.9267 31.6739 90.7068 32.2654 90.7068C32.8584 90.7068 33.2541 90.9267 33.5179 91.1773C33.9163 91.55 34.1188 92.1268 34.1188 92.7194C34.1188 93.312 33.9163 93.8895 33.5179 94.2618C33.2545 94.512 32.8584 94.732 32.2654 94.732C31.6739 94.732 31.2778 94.512 31.0124 94.2618C30.6167 93.8895 30.4111 93.312 30.4111 92.7194C30.4111 92.1268 30.6163 91.55 31.0124 91.1773Z" fill="#906F3E"/>
<path fill-rule="evenodd" clip-rule="evenodd" d="M35.8125 94.0943H36.7547C36.9055 94.0943 37.1206 94.0788 37.2714 93.9352C37.3708 93.843 37.4388 93.6922 37.4388 93.5089C37.4388 93.3037 37.3466 93.1672 37.2268 93.0761C37.0722 92.9624 36.8851 92.9389 36.7237 92.9389H35.8125V94.0943V94.0943ZM35.8125 92.3769H36.6179C36.8001 92.3769 36.9675 92.3697 37.1206 92.2171C37.1882 92.1498 37.2714 92.0288 37.2714 91.8387C37.2714 91.6784 37.2268 91.5579 37.1051 91.4581C36.9532 91.3364 36.7933 91.3443 36.6546 91.3443H35.8125V92.3769V92.3769ZM36.8692 90.7827C37.1882 90.7827 37.5382 90.805 37.7952 90.9717C37.9936 91.1013 38.1845 91.3209 38.1845 91.717C38.1845 92.005 38.0761 92.2034 37.9404 92.3387C37.8104 92.468 37.6357 92.5595 37.4316 92.5897V92.6056C37.6905 92.6271 37.9634 92.7333 38.1293 92.8947C38.2673 93.0232 38.3958 93.2352 38.3958 93.5625C38.3958 94.049 38.1456 94.3079 37.9936 94.4212C37.6826 94.6492 37.316 94.6571 36.9966 94.6571H34.9326V90.7827H36.8692V90.7827Z" fill="#906F3E"/>
<path fill-rule="evenodd" clip-rule="evenodd" d="M41.3132 92.7798C41.1303 92.7798 40.7663 92.8025 40.529 92.8864C40.0834 93.0384 40.0138 93.3657 40.0138 93.555C40.0138 93.7444 40.1129 93.8589 40.1737 93.9118C40.3094 94.0415 40.5244 94.0944 40.7055 94.0944C41.0014 94.0944 41.2977 93.9492 41.4652 93.7376C41.6243 93.541 41.7157 93.2137 41.7157 92.9703V92.7731L41.3132 92.7798V92.7798ZM39.1786 91.8074C39.301 91.299 39.6283 91.0333 39.8626 90.9109C40.046 90.8126 40.3725 90.7068 40.9712 90.7068C41.4504 90.7068 41.8526 90.7828 42.1262 90.9793C42.559 91.2911 42.5971 91.7692 42.5971 92.1876V93.8275C42.5971 94.0864 42.6417 94.4213 42.6795 94.6571H41.8008C41.7683 94.4973 41.7305 94.2769 41.7157 93.9961C41.3646 94.6639 40.7437 94.732 40.4239 94.732C39.4061 94.732 39.0576 94.0944 39.0576 93.5626C39.0576 93.2054 39.2009 92.7798 39.7349 92.5145C40.1903 92.2787 40.9183 92.233 41.283 92.225L41.7157 92.2171V92.0878C41.7157 92.0122 41.7086 91.7091 41.5801 91.5417C41.4179 91.3365 41.1303 91.3141 40.9183 91.3141C40.6359 91.3141 40.4613 91.3599 40.3423 91.4287C40.1964 91.5114 40.0512 91.6717 40.0063 91.9139L39.1786 91.8074V91.8074Z" fill="#906F3E"/>
<path fill-rule="evenodd" clip-rule="evenodd" d="M44.5114 90.7827V92.3093H45.9843V90.7827H46.8665V94.6571H45.9843V92.9624H44.5114V94.6571H43.6289V90.7827H44.5114Z" fill="#906F3E"/>
<path fill-rule="evenodd" clip-rule="evenodd" d="M50.5817 94.0943H51.5213C51.6744 94.0943 51.8864 94.0788 52.0391 93.9352C52.1393 93.843 52.2073 93.6922 52.2073 93.5089C52.2077 93.3037 52.1159 93.1672 51.9926 93.0761C51.8426 92.9624 51.651 92.9389 51.4919 92.9389H50.5817V94.0943V94.0943ZM50.5817 92.3769H51.3875C51.5697 92.3769 51.7353 92.3697 51.8864 92.2171C51.9567 92.1498 52.0391 92.0288 52.0391 91.8387C52.0391 91.6784 51.9926 91.5579 51.8724 91.4581C51.7179 91.3364 51.5622 91.3443 51.425 91.3443H50.5817V92.3769V92.3769ZM51.637 90.7827C51.9567 90.7827 52.3044 90.805 52.563 90.9717C52.761 91.1013 52.95 91.3209 52.95 91.717C52.95 92.005 52.8449 92.2034 52.7066 92.3387C52.5789 92.468 52.4039 92.5595 52.1998 92.5897V92.6056C52.4553 92.6271 52.73 92.7333 52.8982 92.8947C53.0339 93.0232 53.1632 93.2352 53.1632 93.5625C53.1632 94.049 52.9122 94.3079 52.761 94.4212C52.4507 94.6492 52.0845 94.6571 51.7647 94.6571H49.6992V90.7827H51.637V90.7827Z" fill="#906F3E"/>
<path fill-rule="evenodd" clip-rule="evenodd" d="M55.7476 90.9951C55.8194 90.5238 56.0348 90.2127 56.1251 90.0906C56.4445 89.6734 56.9468 89.3691 57.6887 89.3691C58.1986 89.3691 58.6257 89.4909 58.9609 89.7558C59.4549 90.1436 59.5346 90.6606 59.5346 90.9717C59.5346 91.7246 59.0044 92.3017 58.5493 92.6505L56.9604 93.866H59.5516L59.5267 94.6571H55.7476V93.9057L57.7435 92.3467C58.2141 91.974 58.5947 91.5344 58.5947 91.0015C58.5947 90.6909 58.4571 90.4932 58.2889 90.3571C58.0848 90.1821 57.8494 90.1284 57.6294 90.1284C57.2582 90.1284 56.9513 90.3261 56.7782 90.5929C56.6645 90.7668 56.6055 91.0015 56.5885 91.2007L55.7476 90.9951V90.9951Z" fill="#906F3E"/>
<path fill-rule="evenodd" clip-rule="evenodd" d="M61.4441 93.335C61.6316 93.843 61.9899 94.0183 62.3315 94.0183C62.6728 94.0183 63.0315 93.843 63.2201 93.335C63.3664 92.9389 63.3883 92.3769 63.3883 92.0515C63.3883 91.7245 63.3664 91.161 63.2201 90.7668C63.0315 90.2577 62.6728 90.0831 62.3315 90.0831C61.9899 90.0831 61.6316 90.2577 61.4441 90.7668C61.3008 91.161 61.2759 91.7245 61.2759 92.0515C61.2759 92.3769 61.3008 92.9389 61.4441 93.335ZM60.8348 90.1594C61.1761 89.6503 61.6316 89.3691 62.3315 89.3691C63.0315 89.3691 63.4866 89.6503 63.8278 90.1594C64.1941 90.6908 64.3317 91.3749 64.3317 92.0515C64.3317 92.7272 64.1941 93.4106 63.8278 93.9431C63.4866 94.4511 63.0315 94.7319 62.3315 94.7319C61.6316 94.7319 61.1761 94.4511 60.8348 93.9431C60.4713 93.4106 60.3359 92.7272 60.3359 92.0515C60.3359 91.3749 60.4713 90.6908 60.8348 90.1594Z" fill="#906F3E"/>
<path fill-rule="evenodd" clip-rule="evenodd" d="M66.1227 93.335C66.3113 93.843 66.6696 94.0183 67.0109 94.0183C67.353 94.0183 67.7098 93.843 67.8999 93.335C68.045 92.9389 68.0681 92.3769 68.0681 92.0515C68.0684 91.7245 68.045 91.161 67.8999 90.7668C67.7098 90.2577 67.3526 90.0831 67.0109 90.0831C66.6696 90.0831 66.3113 90.2577 66.1224 90.7668C65.9776 91.161 65.9542 91.7245 65.9542 92.0515C65.9542 92.3769 65.9776 92.9389 66.1227 93.335ZM65.5142 90.1594C65.8559 89.6503 66.3113 89.3691 67.0109 89.3691C67.7098 89.3691 68.1648 89.6503 68.508 90.1594C68.8742 90.6908 69.008 91.3749 69.008 92.0515C69.008 92.7272 68.8742 93.4106 68.508 93.9431C68.1648 94.4511 67.7098 94.7319 67.0109 94.7319C66.3113 94.7319 65.8559 94.4511 65.5142 93.9431C65.1514 93.4106 65.0127 92.7272 65.0127 92.0515C65.0127 91.3749 65.1514 90.6908 65.5142 90.1594Z" fill="#906F3E"/>
<path fill-rule="evenodd" clip-rule="evenodd" d="M72.0389 90.2426L70.4379 92.7333H72.0389V90.2426ZM72.9838 92.7333H73.7945V93.4628H72.9838V94.6571H72.0389V93.4628H69.6162V92.8025L71.8563 89.4229H72.9838V92.7333Z" fill="#906F3E"/>
<path fill-rule="evenodd" clip-rule="evenodd" d="M78.9527 90.7827V91.4362H77.213V94.6571H76.332V90.7827H78.9527Z" fill="#906F3E"/>
<path fill-rule="evenodd" clip-rule="evenodd" d="M80.2884 93.623V94.6571H79.2566V93.623H80.2884Z" fill="#906F3E"/>
<path d="M143.893 27.3041L151.079 15.3683H157.858L148.724 28.3597L158.386 43.7866H151.322L143.893 29.9025H143.73V43.7866H137.803V15.3683H143.73V27.3041H143.893ZM157.29 43.7458V38.225L158.468 38.3459C160.281 38.3459 161.499 37.2098 162.121 34.9361C162.419 33.7451 162.568 31.7424 162.568 28.9281L162.731 15.3683H180.147V43.7866H174.22V20.8895H168.373L168.211 30.7952C168.211 34.3408 167.805 37.115 166.994 39.1177C165.694 42.3658 163.313 43.9899 159.848 43.9899C159.117 43.9899 158.264 43.9087 157.29 43.7458V43.7458ZM191.108 33.4885L199.613 15.3748L205.52 15.3683V43.7866H199.594V25.5175L191.108 43.7866H185.181V15.3683H191.108V33.4885V33.4885ZM216.482 31.5662V43.7866H210.554V15.3683H216.482V26.0451H224.154V15.3683H230.082V43.7866H224.154V31.5662H216.482ZM241.044 33.4885L249.549 15.3748L255.456 15.3683V43.7866H249.529V25.5175L241.044 43.7866H235.116V15.3683H241.044V33.4885V33.4885ZM259.393 15.3683H265.321V22.2289C265.321 24.0423 265.612 25.2941 266.194 25.9846C266.776 26.6744 267.729 27.0195 269.056 27.0195C270.274 27.0195 271.41 26.9246 272.466 26.7356V15.3683H278.393V43.7866H272.466V32.2568L270.03 32.4601H267.635C264.901 32.4601 262.899 31.9321 261.626 30.8829C260.138 29.6179 259.393 27.3313 259.393 24.0155V15.3683V15.3683ZM289.355 26.6544H300.479V31.8917H289.355V38.2654H302.265V43.7866H283.427V15.3683H301.94V20.8895H289.355V26.6544ZM319.884 33.7588H325.771C325.446 37.3856 324.431 40.0993 322.726 41.8987C321.021 43.6989 318.491 44.598 315.134 44.598C311.508 44.598 308.733 43.5028 306.812 41.3103C304.755 38.874 303.726 35.1394 303.726 30.1047C303.726 25.7749 304.444 22.3102 305.878 19.7118C307.772 16.2747 310.803 14.5561 314.972 14.5561C319.112 14.5561 322.077 15.9768 323.862 18.819C324.945 20.6056 325.487 22.676 325.487 25.0303H319.681C319.519 23.1901 319.019 21.8635 318.179 21.052C317.529 20.4023 316.542 20.0776 315.216 20.0776C313.889 20.0776 312.806 20.5784 311.968 21.5796C310.696 23.1496 310.06 25.9098 310.06 29.8617C310.06 33.4885 310.709 36.0597 312.008 37.5753C312.874 38.5765 313.997 39.0773 315.378 39.0773C316.677 39.0773 317.692 38.6914 318.423 37.9204C319.153 37.1486 319.64 35.7615 319.884 33.7588V33.7588ZM334.825 27.3041L342.011 15.3683H348.79L339.656 28.3597L349.318 43.7866H342.254L334.825 29.9025H334.662V43.7866H328.735V15.3683H334.662V27.3041H334.825ZM356.667 33.4885L365.172 15.3748L371.079 15.3683V43.7866H365.152V25.5175L356.667 43.7866H350.739V15.3683H356.667V33.4885V33.4885ZM382.04 33.4885L390.545 15.3748L396.452 15.3683V43.7866H390.525V25.5175L382.04 43.7866H376.113V15.3683H382.04V33.4885V33.4885ZM379.564 8.38525H383.745C383.745 9.06217 383.893 9.63061 384.192 10.0906C384.625 10.7667 385.315 11.1054 386.262 11.1054C387.182 11.1054 387.873 10.78 388.333 10.131C388.657 9.64423 388.82 9.06217 388.82 8.38525H393.001C392.839 10.199 392.176 11.5854 391.012 12.5469C389.848 13.5077 388.265 13.9877 386.262 13.9877C384.232 13.9877 382.608 13.4804 381.39 12.4656C380.173 11.4504 379.564 10.0906 379.564 8.38525V8.38525ZM143.73 77.9841L152.236 59.8704L158.142 59.8639V88.2822H152.216V70.0131L143.73 88.2822H137.803V59.8639H143.73V77.9841V77.9841ZM169.104 76.0619V88.2822H163.176V59.8639H169.104V70.5411H176.776V59.8639H182.704V88.2822H176.776V76.0619H169.104ZM202.557 78.2544H208.444C208.118 81.8812 207.103 84.5949 205.398 86.3943C203.694 88.1945 201.163 89.094 197.807 89.094C194.18 89.094 191.406 87.9984 189.484 85.8058C187.427 83.3696 186.399 79.6354 186.399 74.6007C186.399 70.2705 187.116 66.8058 188.55 64.2074C190.445 60.7706 193.476 59.0517 197.644 59.0517C201.785 59.0517 204.749 60.4725 206.535 63.3147C207.618 65.1013 208.159 67.1717 208.159 69.5259H202.353C202.192 67.6861 201.691 66.3594 200.851 65.5476C200.202 64.8979 199.214 64.5736 197.888 64.5736C196.561 64.5736 195.479 65.074 194.64 66.0756C193.368 67.6452 192.732 70.4054 192.732 74.3573C192.732 77.9841 193.381 80.5554 194.68 82.0709C195.546 83.0721 196.67 83.5729 198.051 83.5729C199.349 83.5729 200.364 83.187 201.095 82.416C201.826 81.6442 202.313 80.2571 202.557 78.2544V78.2544ZM215.792 65.3851H208.89V59.8639H228.539V65.3851H221.72V88.2822H215.792V65.3851V65.3851ZM236.862 77.9841L245.367 59.8704L251.274 59.8639V88.2822H245.347V70.0131L236.862 88.2822H230.934V59.8639H236.862V77.9841V77.9841ZM260.693 65.3851H253.791V59.8639H273.44V65.3851H266.62V88.2822H260.693V65.3851V65.3851ZM284.564 73.7076L288.258 59.8639H294.591L287.202 82.4765C286.337 85.1021 285.213 86.8887 283.833 87.8358C282.886 88.4855 281.559 88.8102 279.855 88.8102C279.232 88.8102 278.629 88.7694 278.048 88.6881C277.466 88.6069 276.836 88.4583 276.16 88.2418V82.5986L277.256 83.0045L278.759 83.167C279.733 83.167 280.477 82.653 280.991 81.6246C281.153 81.2459 281.275 80.8392 281.357 80.4061L272.953 59.8639H279.896L284.564 73.7076ZM300.397 65.3851H293.495V59.8639H313.144V65.3851H306.325V88.2822H300.397V65.3851V65.3851ZM340.954 88.2822L335.839 70.0131L335.717 88.2822H329.79V59.8639H337.869L343.025 78.4169L348.18 59.8639H356.259V88.2822H350.332V70.0131L345.129 88.2822H340.954ZM371.727 89.094C368.506 89.094 365.894 88.1197 363.891 86.171C362.349 84.6285 361.252 82.5309 360.603 79.8784C360.387 78.9313 360.224 78.0178 360.116 77.1383C360.008 76.2588 359.954 75.2368 359.954 74.0727C359.954 71.9615 360.17 70.0403 360.603 68.3078C361.252 65.6289 362.335 63.5316 363.851 62.0152C365.827 60.0393 368.452 59.0517 371.727 59.0517C376.057 59.0517 379.224 60.7162 381.227 64.0456C382.742 66.5896 383.501 69.9319 383.501 74.0727C383.501 78.2408 382.756 81.5702 381.267 84.0601C379.292 87.4163 376.112 89.094 371.727 89.094V89.094ZM371.727 83.5729C373.269 83.5729 374.474 83.0585 375.34 82.0301C376.558 80.5145 377.167 77.8621 377.167 74.0727C377.167 70.2573 376.545 67.6048 375.299 66.116C374.433 65.0876 373.242 64.5736 371.727 64.5736C370.184 64.5736 368.994 65.074 368.154 66.0756C366.936 67.5368 366.328 70.2028 366.328 74.0727C366.328 77.8893 366.923 80.5281 368.114 81.9897C368.926 83.0449 370.13 83.5729 371.727 83.5729V83.5729ZM385.53 78.4985H391.295C391.295 80.3384 391.708 81.6442 392.533 82.416C393.359 83.187 394.638 83.5729 396.37 83.5729C397.94 83.5729 399.089 83.2078 399.82 82.4765C400.416 81.8812 400.713 81.0017 400.713 79.8376C400.713 78.4577 400.294 77.4834 399.455 76.9149C399.293 76.8064 399.076 76.7116 398.806 76.6303C398.318 76.4685 397.75 76.3873 397.1 76.3873H393.568V71.15H396.532C397.425 71.15 398.115 71.0279 398.602 70.7849C399.523 70.2705 399.983 69.3362 399.983 67.9835C399.983 66.6032 399.509 65.6417 398.561 65.1012C397.912 64.749 397.087 64.5736 396.085 64.5736C394.814 64.5736 393.907 64.7626 393.365 65.1409C392.445 65.8178 391.985 67.1312 391.985 69.0796H386.179C386.179 65.5071 386.998 62.9424 388.636 61.386C390.273 59.8299 392.878 59.0517 396.451 59.0517C400.185 59.0517 402.892 59.9853 404.57 61.8531C405.735 63.179 406.317 64.9115 406.317 67.0496C406.317 68.4026 406.086 69.4991 405.626 70.3378C404.895 71.7456 403.556 72.72 401.607 73.2613V73.4238C403.583 73.9914 404.984 74.8101 405.809 75.8793C406.634 76.9485 407.047 78.5118 407.047 80.569C407.047 84.0329 405.68 86.4559 402.946 87.8358C401.187 88.6745 398.941 89.094 396.207 89.094C393.257 89.094 390.929 88.4991 389.224 87.3082C386.761 85.5757 385.53 82.6394 385.53 78.4985ZM416.871 65.3851V88.2822H410.944V59.8639H426.696V65.3851H416.871ZM434.206 59.8639H440.174L448.7 88.2822H442.489L441.027 82.9637H433.313L431.892 88.2822H425.681L434.206 59.8639V59.8639ZM434.491 78.133H439.85L437.17 67.4963L434.491 78.133V78.133Z" fill="#008270"/>
</svg>
