<?xml version="1.0" encoding="utf-8"?>
<!-- Generator: Adobe Illustrator 24.0.1, SVG Export Plug-In . SVG Version: 6.00 Build 0)  -->
<svg version="1.1" id="Слой_1" xmlns="http://www.w3.org/2000/svg" xmlns:xlink="http://www.w3.org/1999/xlink" x="0px" y="0px"
	 viewBox="0 0 220 55" style="enable-background:new 0 0 220 55;" xml:space="preserve">
<style type="text/css">
	.st0{fill-rule:evenodd;clip-rule:evenodd;fill:#A01E14;}
	.st1{fill-rule:evenodd;clip-rule:evenodd;fill:#6C6969;}
	.st2{fill-rule:evenodd;clip-rule:evenodd;fill:#6F6F6E;}
</style>
<g>
	<g>
		<path class="st0" d="M22.2,10.6c0.1-4.1,3.5-7.4,7.6-7.4v7.6v12.9H19.2v7.6h10.6v7.6h-6.7h-2.9h-1c-4.2,0-7.6-3.4-7.6-7.6h0v0v0v0
			v-7.6l0,0c0-4.2,3.4-7.6,7.6-7.6l0,0h3L22.2,10.6L22.2,10.6z"/>
		<path class="st1" d="M45.1,44.4c-0.1,4.1-3.5,7.4-7.6,7.4v-7.6V31.3h10.6v-7.6H37.4v-7.6h6.7h2.9h1c4.2,0,7.6,3.4,7.6,7.6l0,0v0
			l0,0l0,0l0,7.6l0,0c0,4.2-3.4,7.6-7.6,7.6l0,0h-3L45.1,44.4L45.1,44.4z"/>
	</g>
	<g>
		<path class="st2" d="M71.4,42.5v4.1h1v-5.9h-0.9l-1.7,2.7L68,40.7h-1v5.9h1v-4.1l1.4,2.2H70L71.4,42.5z M77.6,46.6v-0.9h-2.8V44
			h2.4v-0.8h-2.4v-1.6h2.8v-0.9h-3.8v5.9H77.6z M79.2,47.7v-1.2h3.6v1.2h0.9v-2.1H83v-5h-3.6v2.6c0,0.6-0.1,1.1-0.2,1.5
			c-0.1,0.3-0.3,0.7-0.5,0.9h-0.5v2.1H79.2z M79.8,45.7c0.1-0.2,0.2-0.4,0.3-0.5c0.1-0.2,0.1-0.4,0.2-0.7c0.1-0.3,0.1-0.7,0.1-1.1
			v-1.7H82v4.1H79.8z M85.7,46.6l2.6-4.1v4.1h1v-5.9h-0.9l-2.6,4.1v-4.1h-1v5.9H85.7z M95.8,47.7v-2.1h-0.7v-5h-1v5h-2.3v-5h-1v5.9
			h4.1v1.2H95.8z M97.7,46.6l2.6-4.1v4.1h1v-5.9h-0.9l-2.6,4.1v-4.1h-1v5.9H97.7z M103.8,46.6v-2.5h2.4v2.5h1v-5.9h-1v2.5h-2.4v-2.5
			h-1v5.9H103.8z M110.9,46.7c0.6,0,1.1-0.2,1.5-0.5c0.4-0.3,0.6-0.8,0.6-1.5v-0.1h-1v0.1c0,0.4-0.1,0.6-0.4,0.8
			c-0.2,0.2-0.5,0.3-0.8,0.3c-0.8,0-1.3-0.4-1.3-1.1v-2c0-0.7,0.4-1.1,1.3-1.1c0.3,0,0.6,0.1,0.8,0.3c0.2,0.2,0.4,0.5,0.4,0.8v0.1h1
			v-0.1c0-0.7-0.2-1.2-0.6-1.5c-0.4-0.3-0.9-0.5-1.5-0.5c-1.5,0-2.3,0.8-2.3,2.1v1.9C108.6,45.9,109.4,46.7,110.9,46.7z M115.3,46.6
			v-2.5h0.7l1.6,2.5h1v-0.3l-1.7-2.7l1.6-2.5v-0.3h-0.9l-1.5,2.5h-0.7v-2.5h-1v5.9H115.3z M120.5,46.6l2.6-4.1v4.1h1v-5.9h-0.9
			l-2.6,4.1v-4.1h-1v5.9H120.5z M126.5,46.6l2.6-4.1v4.1h1v-5.9h-0.9l-2.6,4.1v-4.1h-1v5.9H126.5z M126.5,39.2
			c0,0.7,0.5,1.1,1.4,1.1c0.8,0,1.4-0.4,1.4-1.1v-0.1h-0.8v0.1c0,0.3-0.2,0.5-0.6,0.5c-0.4,0-0.6-0.2-0.6-0.5v-0.1L126.5,39.2
			L126.5,39.2z M138.6,47.7v-2.1h-0.7v-5h-1v5h-2.3v-5h-1v5.9h4.1v1.2H138.6z M143.4,46.6v-0.9h-2.8V44h2.4v-0.8h-2.4v-1.6h2.8v-0.9
			h-3.8v5.9H143.4z M145.6,46.6v-2.5h2.4v2.5h1v-5.9h-1v2.5h-2.4v-2.5h-1v5.9H145.6z M152.7,46.6v-5h1.7v-0.9H150v0.9h1.7v5H152.7z
			 M156.3,46.6v-2.3h1.5c1,0,1.7-0.7,1.7-1.8c0-1.1-0.6-1.8-1.7-1.8h-2.5v5.9H156.3z M156.3,41.6h1.4c0.5,0,0.8,0.3,0.8,0.9
			c0,0.6-0.3,0.9-0.8,0.9h-1.4V41.6z"/>
		<g>
			<path class="st0" d="M69.9,35.5v-3h8.8v3h2.8v-5.7h-1.7V17.4h-10v6.8c0,1.5-0.1,2.6-0.4,3.5c-0.3,0.8-0.7,1.6-1.1,2.2h-1.2v5.7
				H69.9z M71.6,29.9c0.2-0.5,0.4-0.9,0.5-1.3c0.1-0.4,0.3-0.9,0.4-1.7c0.1-0.8,0.2-1.7,0.2-2.7V20h4.1v9.8H71.6z M91.5,27.5
				c0,1.4-1,2.5-3,2.5c-1.9,0-3-1.1-3-2.5v-5.2c0-1.4,1-2.5,3-2.5c1.9,0,3,1.1,3,2.5V27.5z M82.4,27.4c0,3.5,2.3,5.5,6.1,5.5
				c3.7,0,6.1-2,6.1-5.5v-4.9c0-3.5-2.3-5.5-6.1-5.5c-3.7,0-6.1,2-6.1,5.5V27.4z M99.8,32.5v-6.3h1.6l3.8,6.3h3.1v-1l-4.2-6.8
				l3.8-6.4v-1H105l-3.7,6.3h-1.6v-6.3h-3.1v15.2H99.8z M116.4,32.5V20h4.3v-2.7H109V20h4.3v12.5H116.4z M130.3,27.5
				c0,1.4-1,2.5-3,2.5c-1.9,0-3-1.1-3-2.5v-5.2c0-1.4,1-2.5,3-2.5c1.9,0,3,1.1,3,2.5V27.5z M121.3,27.4c0,3.5,2.3,5.5,6.1,5.5
				c3.7,0,6.1-2,6.1-5.5v-4.9c0-3.5-2.3-5.5-6.1-5.5c-3.7,0-6.1,2-6.1,5.5V27.4z M138.4,32.5v-5.6h3.7c2.7,0,4.4-1.8,4.4-4.8
				c0-3-1.6-4.8-4.4-4.8h-6.8v15.2H138.4z M138.4,20h3.1c1,0,1.8,0.7,1.8,2.1c0,1.4-0.8,2.1-1.8,2.1h-3.1V20z"/>
			<path class="st1" d="M152.9,32.5V19h7.3v13.5h1.9V17.4h-11v15.2H152.9z M163.3,32.5c1.7,0,2.9-0.6,3.6-1.7
				c0.8-1.1,1.1-3.1,1.1-5.9V19h5.6v13.5h1.9V17.4h-9.2v7.4c0,2.4-0.2,4-0.6,4.8c-0.4,0.8-1.2,1.2-2.3,1.2V32.5z M189.4,32.9
				c3.5,0,5.6-2,5.6-5.3v-5.3c0-3.4-2.1-5.3-5.6-5.3c-1.7,0-3.1,0.5-4.1,1.4c-1,0.9-1.5,2.2-1.5,3.9v1.8h-3.5v-6.8h-1.9v15.2h1.9
				v-6.8h3.5v1.8C183.8,30.9,186,32.9,189.4,32.9z M193.1,27.7c0,2.1-1.4,3.5-3.7,3.5c-2.3,0-3.7-1.4-3.7-3.5v-5.4
				c0-2.1,1.4-3.5,3.7-3.5c2.3,0,3.7,1.4,3.7,3.5V27.7z M202.9,32.9c1.6,0,2.9-0.4,4-1.3c1.1-0.9,1.6-2.2,1.6-3.8v-0.2h-1.9v0.2
				c0,1.1-0.4,2-1.1,2.5c-0.7,0.6-1.6,0.9-2.6,0.9c-2.5,0-3.9-1.3-3.9-3.6v-5.2c0-2.3,1.4-3.6,3.9-3.6c1,0,1.8,0.3,2.6,0.9
				c0.7,0.6,1.1,1.4,1.1,2.5v0.2h1.9v-0.2c0-1.7-0.5-3-1.6-3.8c-1.1-0.9-2.4-1.3-4-1.3c-3.7,0-5.8,2-5.8,5.5v4.9
				C197.1,30.9,199.2,32.9,202.9,32.9z"/>
		</g>
	</g>
</g>
</svg>
